<svg xmlns="http://www.w3.org/2000/svg" viewBox="0 0 512 512" fill="none">
  <rect width="512" height="512" rx="128" fill="#0f172a"/>
  <rect x="0" y="0" width="512" height="512" rx="128" fill="url(#grad1)"/>
  <defs>
    <linearGradient id="grad1" x1="0%" y1="0%" x2="100%" y2="100%">
      <stop offset="0%" style="stop-color:#7c3aed;stop-opacity:1" />
      <stop offset="100%" style="stop-color:#4c1d95;stop-opacity:1" />
    </linearGradient>
  </defs>
  <path d="M256 128C185.3 128 128 185.3 128 256C128 326.7 185.3 384 256 384C326.7 384 384 326.7 384 256C384 185.3 326.7 128 256 128ZM256 341.3C208.9 341.3 170.7 303.1 170.7 256C170.7 208.9 208.9 170.7 256 170.7C303.1 170.7 341.3 208.9 341.3 256C341.3 303.1 303.1 341.3 256 341.3Z" fill="white" fill-opacity="0.2"/>
  <circle cx="256" cy="256" r="64" fill="white"/>
  <path d="M256 180L280 230H232L256 180Z" fill="#facc15" opacity="0.9"/>
  <path d="M332 256L282 280V232L332 256Z" fill="#facc15" opacity="0.9"/>
  <path d="M180 256L230 232V280L180 256Z" fill="#facc15" opacity="0.9"/>
  <path d="M256 332L232 282H280L256 332Z" fill="#facc15" opacity="0.9"/>
</svg>
